<?xml version="1.0" standalone="no"?>
<!DOCTYPE svg PUBLIC "-//W3C//DTD SVG 20010904//EN"
 "http://www.w3.org/TR/2001/REC-SVG-20010904/DTD/svg10.dtd">
<svg version="1.0" xmlns="http://www.w3.org/2000/svg"
 width="616.000000pt" height="146.000000pt" viewBox="0 0 616.000000 146.000000"
 preserveAspectRatio="xMidYMid meet">

<g transform="translate(0.000000,146.000000) scale(0.100000,-0.100000)"
fill="#000000" stroke="none">
<path d="M760 1264 c-69 -18 -152 -68 -193 -115 -61 -68 -73 -85 -110 -151
l-37 -68 355 0 355 0 0 175 0 175 -157 -1 c-106 0 -176 -5 -213 -15z"/>
<path d="M4084 1154 c-39 -40 -40 -44 -19 -84 28 -54 72 -64 110 -25 42 41 31
105 -22 133 -30 17 -32 16 -69 -24z"/>
<path d="M1400 790 l0 -361 63 3 62 3 3 138 3 137 114 0 115 0 0 65 0 65 -115
0 -115 0 0 85 0 85 125 0 125 0 0 70 0 70 -190 0 -190 0 0 -360z"/>
<path d="M3180 791 l0 -361 154 0 c88 0 167 5 187 11 158 53 190 265 51 346
-27 16 -40 29 -31 31 8 3 29 18 47 35 80 76 59 211 -43 269 -36 21 -55 23
-202 26 l-163 4 0 -361z m306 207 c12 -12 18 -34 18 -68 1 -71 -15 -82 -119
-78 l-80 3 -3 84 -3 83 85 -3 c64 -3 90 -8 102 -21z m-13 -269 c59 -30 73 -94
33 -144 -23 -29 -26 -30 -113 -30 l-88 0 -3 79 c-2 44 -1 85 2 93 7 16 137 18
169 2z"/>
<path d="M4615 1140 c-3 -5 -5 -57 -4 -115 1 -58 -1 -108 -4 -111 -2 -3 -22 7
-43 21 -48 33 -74 39 -129 30 -45 -6 -87 -38 -138 -103 -34 -44 -48 -189 -26
-281 11 -50 58 -115 98 -135 68 -36 154 -28 209 19 l30 25 6 -30 c5 -29 7 -30
61 -30 l55 0 0 360 0 360 -54 0 c-30 0 -58 -4 -61 -10z m-46 -326 c34 -29 51
-76 51 -147 0 -40 -5 -53 -32 -82 -37 -40 -82 -48 -137 -26 -37 16 -71 81 -71
134 0 48 24 107 53 129 34 27 99 23 136 -8z"/>
<path d="M2067 955 c-16 -8 -46 -29 -68 -46 l-39 -31 0 41 0 41 -60 0 -60 0 0
-265 0 -265 59 0 59 0 4 153 c3 121 7 159 22 185 19 37 67 62 116 62 l31 0 -3
67 c-3 75 -12 84 -61 58z"/>
<path d="M2305 950 c-22 -10 -52 -30 -67 -43 -31 -29 -68 -97 -68 -126 0 -11
-4 -23 -10 -26 -33 -20 15 -212 67 -268 80 -85 222 -89 306 -9 32 30 71 99 59
105 -4 2 -28 5 -54 5 -36 0 -53 -5 -72 -23 -66 -61 -176 -24 -188 65 l-3 24
163 -1 162 -2 0 59 c0 185 -152 309 -295 240z m126 -110 c21 -12 49 -60 49
-85 0 -12 -15 -15 -87 -15 -102 0 -117 6 -107 44 13 54 91 84 145 56z"/>
<path d="M2815 955 c-25 -8 -58 -34 -87 -66 -53 -58 -68 -107 -68 -217 1 -187
168 -307 320 -229 47 23 110 96 110 127 0 17 -6 18 -57 13 -32 -4 -64 -13 -72
-20 -44 -45 -129 -34 -161 20 -11 18 -20 41 -20 53 0 20 4 21 160 19 l160 -1
0 58 c0 117 -67 222 -157 247 -50 14 -79 13 -128 -4z m128 -130 c28 -29 41
-74 22 -81 -6 -3 -50 -4 -96 -2 -79 3 -84 4 -87 26 -2 14 7 33 27 52 39 40 96
42 134 5z"/>
<path d="M3950 963 c-8 -3 -36 -21 -62 -40 l-48 -35 0 36 0 36 -60 0 -60 0 0
-265 0 -265 59 0 59 0 4 153 c3 123 7 158 21 185 19 35 68 62 112 62 26 0 26
1 23 67 -3 69 -11 80 -48 66z"/>
<path d="M4921 944 c-29 -15 -55 -34 -58 -43 -4 -9 -15 -28 -25 -43 -11 -16
-16 -28 -12 -28 3 0 1 -7 -7 -16 -8 -10 -13 -49 -13 -117 -1 -94 1 -106 28
-154 61 -111 173 -144 269 -79 35 24 35 24 41 4 9 -37 -6 -78 -41 -108 -43
-38 -86 -39 -138 -5 -32 22 -46 25 -101 23 l-63 -3 16 -34 c45 -92 151 -144
251 -123 73 15 130 57 161 117 26 49 26 51 29 337 l3 288 -56 0 c-52 0 -55 -1
-55 -24 0 -34 -14 -39 -36 -14 -24 26 -74 48 -112 48 -15 0 -52 -12 -81 -26z
m187 -138 c37 -34 37 -35 37 -116 0 -75 -2 -83 -25 -101 -42 -33 -69 -41 -106
-29 -75 25 -112 120 -79 206 31 80 109 98 173 40z"/>
<path d="M5510 963 c-72 -25 -101 -48 -137 -106 -38 -61 -38 -63 -38 -167 0
-98 2 -108 30 -155 34 -58 46 -69 100 -95 76 -37 177 -20 238 38 25 23 67 91
67 107 0 3 -24 5 -54 5 -42 0 -58 -5 -79 -24 -56 -52 -145 -38 -172 28 -27 65
-31 63 146 62 l162 -1 -6 76 c-6 88 -29 141 -81 187 -48 42 -127 62 -176 45z
m91 -123 c21 -12 49 -60 49 -85 0 -12 -16 -15 -94 -15 -52 0 -97 4 -101 10 -9
14 20 76 42 89 23 13 79 14 104 1z"/>
<path d="M4070 695 l0 -265 60 0 60 0 0 265 0 265 -60 0 -60 0 0 -265z"/>
<path d="M410 710 l0 -160 174 0 173 0 6 88 c6 90 32 179 63 213 17 19 12 19
-199 19 l-217 0 0 -160z"/>
<path d="M915 851 c-77 -50 -91 -82 -99 -228 l-3 -73 98 0 99 0 0 160 0 160
-32 0 c-18 0 -46 -9 -63 -19z"/>
<path d="M590 330 l0 -170 105 0 105 0 0 170 0 170 -105 0 -105 0 0 -170z"/>
</g>
</svg>
