<?xml version="1.0" standalone="no"?>
<!DOCTYPE svg PUBLIC "-//W3C//DTD SVG 20010904//EN"
 "http://www.w3.org/TR/2001/REC-SVG-20010904/DTD/svg10.dtd">
<svg version="1.0" xmlns="http://www.w3.org/2000/svg"
 width="96.000000pt" height="126.000000pt" viewBox="0 0 96.000000 126.000000"
 preserveAspectRatio="xMidYMid meet">

<g transform="translate(0.000000,126.000000) scale(0.100000,-0.100000)"
fill="#000000" stroke="none">
<path d="M490 1174 c-69 -18 -152 -68 -193 -115 -61 -68 -73 -85 -110 -151
l-37 -68 355 0 355 0 0 175 0 175 -157 -1 c-106 0 -176 -5 -213 -15z"/>
<path d="M140 620 l0 -160 174 0 173 0 6 88 c6 90 32 179 63 213 17 19 12 19
-199 19 l-217 0 0 -160z"/>
<path d="M645 761 c-77 -50 -91 -82 -99 -228 l-3 -73 98 0 99 0 0 160 0 160
-32 0 c-18 0 -46 -9 -63 -19z"/>
<path d="M320 240 l0 -170 105 0 105 0 0 170 0 170 -105 0 -105 0 0 -170z"/>
</g>
</svg>
