<?xml version="1.0" standalone="no"?>
<!DOCTYPE svg PUBLIC "-//W3C//DTD SVG 20010904//EN"
 "http://www.w3.org/TR/2001/REC-SVG-20010904/DTD/svg10.dtd">
<svg version="1.0" xmlns="http://www.w3.org/2000/svg"
 width="725.000000pt" height="344.000000pt" viewBox="0 0 725.000000 344.000000"
 preserveAspectRatio="xMidYMid meet">

<g transform="translate(0.000000,344.000000) scale(0.100000,-0.100000)"
fill="#000000" stroke="none">
<path d="M4412 3088 c-22 -142 -27 -196 -16 -186 9 9 43 187 50 261 12 121
-11 71 -34 -75z"/>
<path d="M4598 3031 c-76 -146 -94 -192 -64 -161 15 16 156 288 156 302 0 27
-24 -9 -92 -141z"/>
<path d="M4219 3135 c-8 -7 21 -209 32 -220 11 -12 11 -2 -1 109 -10 85 -20
122 -31 111z"/>
<path d="M1598 3053 c6 -2 18 -2 25 0 6 3 1 5 -13 5 -14 0 -19 -2 -12 -5z"/>
<path d="M1552 2990 c0 -14 2 -19 5 -12 2 6 2 18 0 25 -3 6 -5 1 -5 -13z"/>
<path d="M4735 2895 c-66 -62 -114 -114 -107 -115 14 0 242 207 242 221 0 20
-20 4 -135 -106z"/>
<path d="M3467 2940 c-14 -11 -28 -34 -32 -50 -4 -17 -13 -30 -21 -30 -8 0
-22 -13 -33 -30 -10 -16 -20 -28 -23 -25 -11 12 -54 -14 -68 -41 -8 -16 -23
-36 -32 -46 -17 -17 -24 -58 -13 -70 7 -7 118 24 126 35 4 5 28 15 55 22 42
10 45 13 23 18 -28 7 -52 48 -43 72 9 22 17 19 42 -15 13 -16 28 -30 34 -30 6
0 8 11 5 30 -6 29 -5 30 28 30 35 0 75 28 75 53 0 7 7 4 15 -7 20 -26 19 -96
-1 -124 -9 -13 -14 -24 -13 -26 70 -46 100 -48 116 -6 9 24 17 30 42 30 21 0
31 5 31 15 0 18 -35 55 -53 55 -8 0 -13 13 -13 35 0 43 -26 73 -72 81 -19 4
-43 15 -53 25 -26 26 -89 25 -122 -1z"/>
<path d="M1506 2934 c-5 -14 -4 -15 9 -4 17 14 19 20 6 20 -5 0 -12 -7 -15
-16z"/>
<path d="M1590 2946 c0 -2 8 -10 18 -17 15 -13 16 -12 3 4 -13 16 -21 21 -21
13z"/>
<path d="M6470 2935 c-14 -8 -34 -18 -45 -24 -44 -20 -63 -76 -46 -136 8 -32
5 -51 -21 -131 -22 -68 -29 -102 -24 -129 9 -48 21 -44 36 13 19 77 40 112 76
127 41 17 42 29 7 59 -25 21 -28 31 -28 87 0 66 17 90 34 47 13 -35 38 -52 77
-52 25 0 34 -4 34 -17 0 -9 -7 -19 -15 -23 -36 -14 -1 -106 41 -106 26 0 72
-52 94 -105 12 -30 26 -55 30 -55 26 0 46 74 30 116 -6 16 -29 52 -51 80 -21
28 -50 82 -63 121 -30 89 -44 110 -82 128 -39 19 -52 19 -84 0z"/>
<path d="M1476 2863 c-6 -14 -5 -15 5 -6 7 7 10 15 7 18 -3 3 -9 -2 -12 -12z"/>
<path d="M1626 2871 c-3 -5 1 -11 9 -15 15 -6 29 7 18 18 -9 9 -21 8 -27 -3z"/>
<path d="M1508 2863 c6 -2 18 -2 25 0 6 3 1 5 -13 5 -14 0 -19 -2 -12 -5z"/>
<path d="M1371 2844 c0 -11 3 -14 6 -6 3 7 2 16 -1 19 -3 4 -6 -2 -5 -13z"/>
<path d="M1658 2823 c7 -11 24 -31 39 -42 26 -19 26 -22 11 -32 -10 -5 -18
-15 -18 -21 0 -6 8 -4 18 5 35 32 82 13 95 -38 4 -18 5 -17 6 3 1 29 -15 46
-63 66 -21 9 -51 30 -68 48 -20 21 -27 25 -20 11z"/>
<path d="M1438 2813 c7 -3 16 -2 19 1 4 3 -2 6 -13 5 -11 0 -14 -3 -6 -6z"/>
<path d="M1510 2804 c0 -8 5 -12 10 -9 6 4 8 11 5 16 -9 14 -15 11 -15 -7z"/>
<path d="M1625 2810 c-3 -5 1 -10 10 -10 9 0 13 5 10 10 -3 6 -8 10 -10 10 -2
0 -7 -4 -10 -10z"/>
<path d="M1371 2754 c0 -11 3 -14 6 -6 3 7 2 16 -1 19 -3 4 -6 -2 -5 -13z"/>
<path d="M4845 2735 c-27 -14 -72 -33 -99 -45 -57 -23 -56 -38 1 -20 64 21
173 72 173 81 0 14 -21 9 -75 -16z"/>
<path d="M1436 2738 c3 -4 9 -8 15 -8 5 0 9 4 9 8 0 5 -7 9 -15 9 -8 0 -12 -4
-9 -9z"/>
<path d="M1475 2668 c5 -19 1 -32 -14 -47 -15 -15 -17 -21 -7 -21 8 0 17 7 20
16 6 15 9 15 29 -2 15 -13 18 -14 9 -3 -7 9 -11 21 -10 25 2 5 -5 20 -15 34
l-18 25 6 -27z"/>
<path d="M1655 2660 c-10 -11 -14 -20 -9 -20 5 0 15 9 22 20 7 11 11 20 9 20
-2 0 -12 -9 -22 -20z"/>
<path d="M2496 2668 c-195 -41 -210 -316 -21 -378 86 -28 196 14 235 90 24 47
27 147 6 189 -15 27 -79 91 -94 91 -4 1 -25 4 -47 9 -22 4 -57 3 -79 -1z m160
-122 c9 -10 14 -37 14 -80 l0 -66 -130 0 -130 0 0 64 c0 99 -4 96 122 96 81 0
113 -4 124 -14z"/>
<path d="M1791 2644 c0 -11 3 -14 6 -6 3 7 2 16 -1 19 -3 4 -6 -2 -5 -13z"/>
<path d="M1410 2615 c0 -14 4 -25 9 -25 4 0 6 11 3 25 -2 14 -6 25 -8 25 -2 0
-4 -11 -4 -25z"/>
<path d="M1650 2616 c0 -2 8 -10 18 -17 15 -13 16 -12 3 4 -13 16 -21 21 -21
13z"/>
<path d="M1644 2584 c3 -9 6 -25 6 -37 1 -20 2 -20 11 -5 7 12 6 24 -1 38 -13
24 -25 27 -16 4z"/>
<path d="M1835 2580 c10 -11 20 -20 23 -20 3 0 -3 9 -13 20 -10 11 -20 20 -23
20 -3 0 3 -9 13 -20z"/>
<path d="M1675 2570 c3 -5 14 -10 23 -10 15 0 15 2 2 10 -20 13 -33 13 -25 0z"/>
<path d="M1690 2536 c0 -8 4 -17 9 -20 5 -4 7 3 4 14 -6 23 -13 26 -13 6z"/>
<path d="M1826 2457 c3 -10 9 -15 12 -12 3 3 0 11 -7 18 -10 9 -11 8 -5 -6z"/>
<path d="M1841 2404 c0 -11 3 -14 6 -6 3 7 2 16 -1 19 -3 4 -6 -2 -5 -13z"/>
<path d="M1872 2360 c0 -14 2 -19 5 -12 2 6 2 18 0 25 -3 6 -5 1 -5 -13z"/>
<path d="M1850 2300 c0 -29 2 -51 5 -48 8 7 9 87 2 95 -4 3 -7 -18 -7 -47z"/>
<path d="M6137 2267 c-18 -17 -27 -50 -44 -157 -12 -74 -25 -158 -28 -186 l-6
-50 -47 0 c-52 -1 -114 -28 -149 -66 -23 -24 -73 -124 -73 -145 0 -14 -56 -17
-108 -7 l-30 6 -4 99 c-2 55 -9 104 -15 110 -26 26 -138 11 -147 -19 -6 -18
-8 -129 -3 -171 2 -20 -4 -26 -33 -34 -19 -5 -47 -18 -62 -29 l-28 -19 -19 43
c-10 24 -35 83 -56 131 -21 49 -44 91 -52 94 -18 7 -17 23 2 23 22 0 19 32
-10 101 -14 33 -23 65 -19 71 4 6 3 8 -4 4 -5 -3 -12 0 -15 6 -6 18 -77 -16
-77 -37 0 -9 11 -43 25 -76 28 -65 26 -79 -9 -79 -34 0 -46 -19 -46 -77 0 -53
0 -53 -22 -42 -13 7 -29 21 -37 32 -11 15 -22 18 -53 14 -49 -7 -68 -22 -68
-57 0 -27 1 -28 34 -19 44 12 86 -3 86 -31 0 -11 7 -20 16 -20 8 0 12 -4 9
-10 -11 -17 7 -11 21 8 12 15 13 9 14 -40 0 -61 -4 -67 -36 -43 -10 8 -35 15
-55 15 -28 0 -38 -5 -42 -20 -6 -25 -69 -54 -78 -37 -3 7 -21 81 -40 164 l-33
153 -45 13 c-36 10 -65 10 -133 2 -48 -6 -90 -13 -93 -16 -6 -7 -38 -172 -66
-347 -12 -78 -26 -139 -29 -135 -7 8 -27 93 -40 173 -4 25 -8 41 -9 35 -1 -5
-8 -1 -16 9 -8 11 -17 18 -19 15 -7 -7 56 -304 66 -310 6 -4 -3 -80 -22 -192
-17 -102 -30 -196 -28 -208 4 -27 30 -37 104 -38 61 -1 70 7 79 74 3 28 10 73
15 100 5 28 11 71 15 98 l6 47 93 0 92 0 24 -142 c25 -141 25 -143 56 -158 30
-14 35 -24 78 -170 25 -85 56 -192 68 -238 l23 -83 35 3 c31 3 35 7 38 33 2
17 7 34 12 39 5 4 6 22 4 40 -2 17 4 105 14 196 l18 165 44 -3 c75 -4 74 -8
71 210 -1 106 1 201 4 211 7 17 50 23 71 9 6 -4 22 -29 34 -57 35 -76 149
-318 158 -335 12 -21 81 -42 114 -35 32 7 29 -29 29 383 l0 212 54 0 55 0 0
-114 c0 -147 8 -210 25 -196 8 6 41 10 75 8 l61 -3 19 -55 c11 -30 19 -83 20
-117 l0 -62 -37 -3 -38 -4 40 -18 c61 -28 154 -37 258 -26 107 12 127 27 127
94 0 69 -3 70 -136 62 -192 -11 -203 3 -211 268 -3 96 -2 182 3 192 4 11 9 48
9 84 1 76 23 126 63 141 33 13 200 -3 230 -22 16 -10 30 -10 69 -1 26 7 55 14
63 15 13 2 15 -50 18 -402 2 -309 5 -407 15 -413 14 -9 441 -11 474 -2 23 6
43 49 43 93 0 54 -6 56 -187 61 l-168 5 0 120 c0 66 1 128 4 138 3 15 18 17
142 17 76 0 140 4 143 8 3 5 8 31 11 58 11 79 2 84 -161 84 -99 0 -136 3 -138
13 -3 6 -7 58 -10 115 l-5 102 152 0 c84 0 157 4 164 8 29 18 43 108 21 130
-18 18 -77 14 -138 -9 -49 -19 -70 -21 -185 -16 -146 5 -185 15 -185 49 0 12
-18 75 -40 139 -22 65 -40 120 -40 123 0 3 21 -1 48 -9 26 -8 82 -22 124 -30
65 -14 82 -14 104 -3 32 15 60 52 68 91 6 25 4 27 -25 27 -18 0 -52 14 -83 35
-31 21 -65 35 -82 35 l-29 -1 30 -14 c20 -9 24 -14 12 -14 -19 -1 -274 26
-320 34 -20 3 -34 -2 -50 -18z m189 -389 c31 -63 36 -67 71 -70 38 -3 48 -14
34 -36 -6 -10 -13 -11 -34 -1 -22 10 -30 8 -53 -10 -38 -30 -44 -26 -28 20 21
60 9 69 -87 69 -43 0 -80 4 -83 9 -3 4 11 56 30 115 l36 107 40 -68 c22 -37
55 -98 74 -135z m-231 -40 c27 -12 29 -16 15 -38 -9 -14 -9 -14 -68 16 -6 3
11 34 19 34 4 0 20 -5 34 -12z m-1414 -190 c10 -45 48 -269 49 -279 0 -8 -72
-29 -99 -29 -13 0 -21 6 -21 18 1 24 18 155 25 189 5 21 4 24 -4 13 -9 -13
-11 -11 -11 6 0 12 6 24 14 27 7 3 16 28 20 57 8 60 15 59 27 -2z m1204 -58
c-4 -6 -82 -10 -200 -10 -118 0 -196 4 -200 10 -4 7 65 10 200 10 135 0 204
-3 200 -10z m5 -50 c0 -6 -75 -10 -205 -10 -130 0 -205 4 -205 10 0 6 75 10
205 10 130 0 205 -4 205 -10z m-345 -50 c4 -6 -8 -10 -29 -10 -20 0 -36 5 -36
10 0 6 13 10 29 10 17 0 33 -4 36 -10z m-257 -106 c-3 -2 -13 2 -23 10 -13 9
-16 19 -11 32 7 17 9 16 23 -9 8 -16 13 -31 11 -33z m160 31 c-3 -3 -9 2 -12
12 -6 14 -5 15 5 6 7 -7 10 -15 7 -18z m39 -32 c-9 -9 -20 -13 -24 -9 -4 4 -1
11 7 16 25 16 35 11 17 -7z m-2 -58 c0 -16 -8 -21 -42 -23 -37 -3 -43 0 -43
17 0 12 8 21 23 24 42 9 62 3 62 -18z m-861 -20 c4 -12 -4 -15 -39 -15 -66 0
-56 25 11 29 12 0 24 -6 28 -14z"/>
<path d="M1023 2239 c12 -31 21 -36 33 -17 4 7 3 8 -4 4 -11 -6 -16 5 -14 26
1 3 -5 8 -12 11 -11 5 -12 0 -3 -24z"/>
<path d="M1115 2250 c3 -5 16 -15 28 -21 22 -12 22 -12 3 10 -19 21 -43 30
-31 11z"/>
<path d="M818 2233 c7 -3 16 -2 19 1 4 3 -2 6 -13 5 -11 0 -14 -3 -6 -6z"/>
<path d="M988 2224 c-3 -5 3 -17 14 -26 21 -21 24 -10 5 17 -8 10 -16 14 -19
9z"/>
<path d="M886 2192 c-3 -5 1 -9 9 -9 8 0 12 4 9 9 -3 4 -7 8 -9 8 -2 0 -6 -4
-9 -8z"/>
<path d="M1381 2174 c0 -11 3 -14 6 -6 3 7 2 16 -1 19 -3 4 -6 -2 -5 -13z"/>
<path d="M1863 2110 c0 -30 2 -43 4 -27 2 15 2 39 0 55 -2 15 -4 2 -4 -28z"/>
<path d="M5178 2123 c7 -3 16 -2 19 1 4 3 -2 6 -13 5 -11 0 -14 -3 -6 -6z"/>
<path d="M5044 2058 l-19 -23 23 19 c12 11 22 21 22 23 0 8 -8 2 -26 -19z"/>
<path d="M4735 2040 c-22 -10 -13 -13 25 -10 34 2 51 20 20 19 -14 0 -34 -4
-45 -9z"/>
<path d="M1351 2024 c0 -11 3 -14 6 -6 3 7 2 16 -1 19 -3 4 -6 -2 -5 -13z"/>
<path d="M4750 2010 c-28 -9 -19 -13 20 -10 30 2 53 20 25 19 -11 -1 -31 -5
-45 -9z"/>
<path d="M1338 1983 c-2 -10 -1 -29 3 -43 5 -20 6 -16 7 18 0 45 -3 52 -10 25z"/>
<path d="M4740 1970 c0 -5 14 -7 33 -3 45 8 47 13 4 13 -20 0 -37 -4 -37 -10z"/>
<path d="M4710 1938 c0 -25 3 -28 33 -27 28 0 29 1 10 9 -12 5 -26 17 -32 27
-9 16 -10 15 -11 -9z"/>
<path d="M4837 1940 c-3 -11 -1 -20 4 -20 5 0 9 9 9 20 0 11 -2 20 -4 20 -2 0
-6 -9 -9 -20z"/>
<path d="M1350 1890 c0 -13 -8 -24 -20 -27 -19 -5 -20 -14 -20 -262 l0 -256
29 -17 c16 -9 37 -31 46 -48 9 -18 36 -52 60 -76 l44 -44 3 83 3 82 140 3
c128 2 141 4 158 23 25 30 23 105 -2 119 -11 5 -82 10 -160 10 l-140 0 -5 33
c-3 17 -7 69 -10 114 l-4 82 159 3 c96 2 162 7 169 14 6 6 13 27 17 47 6 41
-5 116 -15 100 -4 -7 -22 -8 -47 -4 l-40 7 34 7 c19 4 32 9 29 12 -2 3 -20 0
-39 -6 -42 -13 -379 -21 -379 -8 0 4 15 6 33 4 30 -5 30 -4 5 4 -14 5 -31 12
-37 16 -7 3 -11 -2 -11 -15z"/>
<path d="M2045 1883 c-22 -1 -68 -6 -102 -9 l-63 -6 0 -483 c0 -451 1 -485 18
-493 31 -17 100 -24 121 -12 20 10 21 19 21 196 l0 185 51 -3 51 -3 77 -175
c65 -148 81 -177 106 -189 30 -15 138 -21 150 -9 8 8 -15 68 -90 238 -26 58
-55 124 -65 146 l-18 42 30 22 c16 12 42 48 56 79 24 51 27 67 27 186 0 116
-2 135 -22 172 -25 46 -63 77 -120 97 -41 14 -164 25 -228 19z m163 -174 c33
-35 42 -131 19 -199 -15 -45 -64 -70 -134 -70 l-53 0 0 138 c0 76 3 142 7 145
3 4 37 7 74 7 56 0 72 -4 87 -21z"/>
<path d="M2570 1386 c0 -396 2 -475 14 -485 19 -16 480 -11 496 5 15 15 23
106 11 124 -8 12 -44 16 -178 20 l-168 5 0 135 0 135 143 3 c143 3 143 3 152
28 15 38 12 91 -6 108 -12 13 -41 16 -150 16 -99 0 -136 3 -138 13 -3 6 -7 58
-10 115 l-6 102 152 0 c84 0 158 4 164 8 32 21 46 106 22 130 -9 9 -79 12
-255 12 l-243 0 0 -474z"/>
<path d="M3190 1385 c0 -459 1 -475 19 -485 30 -15 449 -13 481 3 22 11 25 20
28 73 4 76 10 74 -196 74 l-153 0 3 138 3 137 135 3 c112 2 137 5 148 19 15
21 16 105 0 121 -8 8 -56 12 -149 12 l-136 0 -6 83 c-4 45 -7 97 -7 115 l0 32
150 0 c137 0 152 2 170 20 12 12 20 33 20 54 l0 33 -145 7 c-81 4 -167 14
-193 22 -26 7 -75 14 -109 14 l-63 0 0 -475z"/>
<path d="M3821 1804 c0 -11 3 -14 6 -6 3 7 2 16 -1 19 -3 4 -6 -2 -5 -13z"/>
<path d="M993 1764 c-18 -7 -39 -27 -48 -43 -19 -38 -20 -124 -1 -141 8 -6 16
-21 18 -33 2 -12 16 -28 31 -37 27 -14 29 -14 48 9 l19 23 18 -22 c21 -26 55
-21 73 12 17 32 -7 51 -51 38 -19 -6 -51 -7 -70 -3 -19 4 -41 6 -49 4 -8 -1
-10 2 -5 11 19 35 39 48 73 49 20 0 45 4 56 8 25 11 45 -4 45 -34 0 -29 9 -36
31 -24 15 7 19 21 19 60 0 45 -4 55 -32 81 -60 56 -114 69 -175 42z m45 -226
c3 -14 -3 -18 -27 -18 -25 0 -31 4 -31 21 0 16 5 20 27 17 17 -2 29 -10 31
-20z m102 1 c0 -16 -5 -20 -27 -17 -17 2 -29 10 -31 21 -3 13 3 17 27 17 25 0
31 -4 31 -21z"/>
<path d="M5430 1734 c-17 -9 -20 -14 -9 -14 9 0 22 7 29 15 15 18 13 18 -20
-1z"/>
<path d="M3951 1472 l-33 -82 -88 0 c-96 0 -109 -7 -113 -57 -2 -27 0 -28 51
-31 l52 -3 0 -194 c0 -185 1 -195 20 -205 29 -16 435 -9 451 7 16 16 23 104
10 123 -8 12 -40 16 -156 18 l-145 3 -1 192 c-1 106 -4 219 -8 251 l-6 60 -34
-82z"/>
<path d="M4090 1393 c-40 -5 -50 -16 -50 -57 l0 -29 95 7 c155 11 186 17 183
35 -2 10 -26 22 -68 33 -64 17 -91 19 -160 11z"/>
<path d="M5704 1063 c-15 -24 -15 -26 -1 -14 14 11 20 11 35 0 16 -13 16 -13
-1 7 -9 11 -14 24 -10 27 3 4 4 7 1 7 -3 0 -14 -12 -24 -27z"/>
<path d="M663 876 c-32 -15 -46 -42 -45 -88 2 -61 65 -133 172 -193 l65 -37
-50 6 c-68 8 -81 -1 -64 -47 10 -30 10 -41 -1 -64 -8 -15 -16 -32 -19 -37 -6
-14 116 1 184 23 68 21 77 39 51 93 -17 34 -14 42 21 52 17 6 27 0 47 -31 33
-48 32 -52 -4 -64 -31 -11 -40 -25 -17 -27 6 -1 26 -4 44 -8 24 -5 39 -1 59
15 34 27 42 26 37 -3 -3 -16 1 -25 13 -30 26 -10 223 -30 230 -24 3 4 1 15 -5
26 -14 26 -14 89 -1 97 17 10 11 21 -17 35 -26 12 -26 14 -8 19 36 11 134 72
165 102 25 25 30 39 30 77 0 58 -30 112 -62 113 -72 3 -130 -15 -162 -50 -18
-20 -29 -21 -256 -21 -225 0 -238 1 -243 19 -12 46 -106 73 -164 47z m247
-389 c0 -10 -4 -16 -9 -13 -5 4 -11 0 -14 -6 -3 -8 -9 -3 -15 12 l-11 25 -1
-25 c-1 -23 -2 -23 -10 -5 -14 31 -11 41 9 42 11 1 22 -6 24 -15 3 -11 5 -8 6
8 1 20 3 22 11 10 5 -8 10 -23 10 -33z m394 21 c8 -33 7 -48 -4 -48 -5 0 -11
15 -12 33 l-1 32 -4 -32 c-6 -44 -23 -42 -23 2 0 28 4 35 19 35 11 0 21 -9 25
-22z m-472 -23 c3 -14 2 -28 -2 -30 -4 -3 -10 11 -12 29 -4 39 7 40 14 1z
m398 0 c0 -19 -4 -35 -10 -35 -5 0 -10 16 -10 35 0 19 5 35 10 35 6 0 10 -16
10 -35z m17 -17 c-2 -13 -4 -5 -4 17 -1 22 1 32 4 23 2 -10 2 -28 0 -40z
m-450 -5 c-3 -10 -5 -2 -5 17 0 19 2 27 5 18 2 -10 2 -26 0 -35z m390 0 c-3
-10 -5 -2 -5 17 0 19 2 27 5 18 2 -10 2 -26 0 -35z"/>
<path d="M3255 709 c-4 -15 -18 -30 -33 -36 l-27 -11 26 -1 c17 -1 30 -9 36
-23 l10 -23 7 21 c4 12 17 25 29 28 12 3 267 7 567 8 l545 3 -565 5 -564 5
-13 24 -12 25 -6 -25z"/>
<path d="M2908 602 c-4 -12 -16 -26 -29 -30 l-23 -9 26 -6 c15 -4 30 -17 34
-30 l8 -22 6 25 6 25 562 3 c363 1 562 6 562 12 0 7 -196 10 -559 10 l-559 0
-14 22 -15 22 -5 -22z"/>
<path d="M3082 506 c-6 -14 -20 -26 -29 -26 -13 -1 -10 -5 10 -16 15 -8 27
-22 27 -32 1 -12 5 -9 16 11 10 19 23 27 42 28 26 1 26 1 -6 10 -18 6 -36 19
-40 30 -8 20 -9 19 -20 -5z"/>
<path d="M3242 473 c37 -2 100 -2 140 0 40 1 10 3 -67 3 -77 0 -110 -1 -73 -3z"/>
<path d="M3468 473 c7 -3 16 -2 19 1 4 3 -2 6 -13 5 -11 0 -14 -3 -6 -6z"/>
<path d="M3683 473 c104 -2 270 -2 370 0 100 1 16 2 -188 2 -203 0 -285 -1
-182 -2z"/>
<path d="M5117 401 c-10 -3 -24 -18 -31 -31 -9 -18 -19 -24 -36 -22 -41 4 -99
-25 -100 -50 0 -5 28 -8 61 -8 55 0 67 4 110 36 50 37 58 51 37 72 -13 13 -15
14 -41 3z"/>
</g>
</svg>
